<mxfile host="app.diagrams.net" modified="2022-05-22T09:39:23.743Z" agent="5.0 (Windows NT 10.0; Win64; x64) AppleWebKit/537.36 (KHTML, like Gecko) Chrome/101.0.4951.67 Safari/537.36" etag="9prEmysdGfTMCK7eGegT" version="18.0.8" type="github" pages="2">
  <diagram id="YVaQByqGfkareMAY_nM6" name="kafka基础架构">
    <mxGraphModel dx="1022" dy="402" grid="1" gridSize="10" guides="1" tooltips="1" connect="1" arrows="1" fold="1" page="1" pageScale="1" pageWidth="827" pageHeight="1169" math="0" shadow="0">
      <root>
        <mxCell id="0" />
        <mxCell id="1" parent="0" />
        <mxCell id="eSXZG_brT0zHeE_Tpon9-62" value="" style="rounded=0;orthogonalLoop=1;jettySize=auto;html=1;elbow=vertical;exitX=0.5;exitY=0;exitDx=0;exitDy=0;entryX=0.5;entryY=1;entryDx=0;entryDy=0;" edge="1" parent="1" source="eSXZG_brT0zHeE_Tpon9-1" target="eSXZG_brT0zHeE_Tpon9-53">
          <mxGeometry relative="1" as="geometry" />
        </mxCell>
        <mxCell id="eSXZG_brT0zHeE_Tpon9-1" value="Kafka Cluster" style="swimlane;" vertex="1" parent="1">
          <mxGeometry x="180" y="340" width="420" height="290" as="geometry">
            <mxRectangle x="220" y="90" width="110" height="23" as="alternateBounds" />
          </mxGeometry>
        </mxCell>
        <mxCell id="eSXZG_brT0zHeE_Tpon9-2" value="breker0" style="swimlane;fillColor=#f5f5f5;fontColor=#333333;strokeColor=#666666;" vertex="1" parent="eSXZG_brT0zHeE_Tpon9-1">
          <mxGeometry x="25" y="40" width="355" height="70" as="geometry" />
        </mxCell>
        <mxCell id="eSXZG_brT0zHeE_Tpon9-4" value="TopicA - Partition0&lt;br&gt;leader" style="rounded=0;whiteSpace=wrap;html=1;fillColor=#d5e8d4;strokeColor=#82b366;" vertex="1" parent="eSXZG_brT0zHeE_Tpon9-2">
          <mxGeometry x="15" y="30" width="110" height="30" as="geometry" />
        </mxCell>
        <mxCell id="eSXZG_brT0zHeE_Tpon9-5" value="TopicA - Partition1&lt;br&gt;follower" style="rounded=0;whiteSpace=wrap;html=1;fillColor=#ffe6cc;strokeColor=#d79b00;" vertex="1" parent="eSXZG_brT0zHeE_Tpon9-2">
          <mxGeometry x="215" y="30" width="110" height="30" as="geometry" />
        </mxCell>
        <mxCell id="eSXZG_brT0zHeE_Tpon9-6" value="breker1" style="swimlane;fillColor=#f5f5f5;fontColor=#333333;strokeColor=#666666;" vertex="1" parent="eSXZG_brT0zHeE_Tpon9-1">
          <mxGeometry x="25" y="120" width="355" height="70" as="geometry" />
        </mxCell>
        <mxCell id="eSXZG_brT0zHeE_Tpon9-7" value="TopicA - Partition1&lt;br&gt;leader" style="rounded=0;whiteSpace=wrap;html=1;fillColor=#ffe6cc;strokeColor=#d79b00;" vertex="1" parent="eSXZG_brT0zHeE_Tpon9-6">
          <mxGeometry x="15" y="30" width="110" height="30" as="geometry" />
        </mxCell>
        <mxCell id="eSXZG_brT0zHeE_Tpon9-8" value="TopicA - Partition2&lt;br&gt;follower" style="rounded=0;whiteSpace=wrap;html=1;fillColor=#e1d5e7;strokeColor=#9673a6;" vertex="1" parent="eSXZG_brT0zHeE_Tpon9-6">
          <mxGeometry x="215" y="30" width="110" height="30" as="geometry" />
        </mxCell>
        <mxCell id="eSXZG_brT0zHeE_Tpon9-9" value="breker2" style="swimlane;startSize=23;fillColor=#f5f5f5;fontColor=#333333;strokeColor=#666666;" vertex="1" parent="eSXZG_brT0zHeE_Tpon9-1">
          <mxGeometry x="25" y="200" width="355" height="70" as="geometry" />
        </mxCell>
        <mxCell id="eSXZG_brT0zHeE_Tpon9-10" value="TopicA - Partition2&lt;br&gt;leader" style="rounded=0;whiteSpace=wrap;html=1;fillColor=#e1d5e7;strokeColor=#9673a6;" vertex="1" parent="eSXZG_brT0zHeE_Tpon9-9">
          <mxGeometry x="15" y="30" width="110" height="30" as="geometry" />
        </mxCell>
        <mxCell id="eSXZG_brT0zHeE_Tpon9-11" value="TopicA - Partition0&lt;br&gt;follower" style="rounded=0;whiteSpace=wrap;html=1;fillColor=#d5e8d4;strokeColor=#82b366;" vertex="1" parent="eSXZG_brT0zHeE_Tpon9-9">
          <mxGeometry x="215" y="30" width="110" height="30" as="geometry" />
        </mxCell>
        <mxCell id="eSXZG_brT0zHeE_Tpon9-14" value="" style="endArrow=classic;html=1;rounded=0;exitX=1;exitY=0.75;exitDx=0;exitDy=0;entryX=0;entryY=0.5;entryDx=0;entryDy=0;fillColor=#d5e8d4;strokeColor=#82b366;shape=link;" edge="1" parent="eSXZG_brT0zHeE_Tpon9-1" source="eSXZG_brT0zHeE_Tpon9-4" target="eSXZG_brT0zHeE_Tpon9-11">
          <mxGeometry width="50" height="50" relative="1" as="geometry">
            <mxPoint x="160" y="160" as="sourcePoint" />
            <mxPoint x="210" y="110" as="targetPoint" />
          </mxGeometry>
        </mxCell>
        <mxCell id="eSXZG_brT0zHeE_Tpon9-16" value="" style="endArrow=classic;html=1;rounded=0;entryX=0;entryY=0.5;entryDx=0;entryDy=0;exitX=1;exitY=0.5;exitDx=0;exitDy=0;fillColor=#fff2cc;strokeColor=#d6b656;shape=link;" edge="1" parent="eSXZG_brT0zHeE_Tpon9-1" source="eSXZG_brT0zHeE_Tpon9-7" target="eSXZG_brT0zHeE_Tpon9-5">
          <mxGeometry width="50" height="50" relative="1" as="geometry">
            <mxPoint x="-100" y="230" as="sourcePoint" />
            <mxPoint x="-50" y="180" as="targetPoint" />
          </mxGeometry>
        </mxCell>
        <mxCell id="eSXZG_brT0zHeE_Tpon9-17" value="" style="endArrow=classic;html=1;rounded=0;exitX=1;exitY=0.5;exitDx=0;exitDy=0;entryX=0;entryY=0.5;entryDx=0;entryDy=0;fillColor=#e1d5e7;strokeColor=#9673a6;shape=link;" edge="1" parent="eSXZG_brT0zHeE_Tpon9-1" source="eSXZG_brT0zHeE_Tpon9-10" target="eSXZG_brT0zHeE_Tpon9-8">
          <mxGeometry width="50" height="50" relative="1" as="geometry">
            <mxPoint x="-80" y="270" as="sourcePoint" />
            <mxPoint x="-30" y="220" as="targetPoint" />
          </mxGeometry>
        </mxCell>
        <mxCell id="eSXZG_brT0zHeE_Tpon9-18" value="Producer&lt;br&gt;&lt;br&gt;&lt;br&gt;" style="rounded=0;whiteSpace=wrap;html=1;align=center;" vertex="1" parent="1">
          <mxGeometry x="10" y="475" width="120" height="60" as="geometry" />
        </mxCell>
        <mxCell id="eSXZG_brT0zHeE_Tpon9-19" value="data" style="rounded=0;whiteSpace=wrap;html=1;fillColor=#dae8fc;strokeColor=#6c8ebf;" vertex="1" parent="1">
          <mxGeometry x="20" y="510" width="30" height="20" as="geometry" />
        </mxCell>
        <mxCell id="eSXZG_brT0zHeE_Tpon9-20" value="data" style="rounded=0;whiteSpace=wrap;html=1;fillColor=#dae8fc;strokeColor=#6c8ebf;" vertex="1" parent="1">
          <mxGeometry x="55" y="510" width="30" height="20" as="geometry" />
        </mxCell>
        <mxCell id="eSXZG_brT0zHeE_Tpon9-21" value="data" style="rounded=0;whiteSpace=wrap;html=1;fillColor=#dae8fc;strokeColor=#6c8ebf;" vertex="1" parent="1">
          <mxGeometry x="90" y="510" width="30" height="20" as="geometry" />
        </mxCell>
        <mxCell id="eSXZG_brT0zHeE_Tpon9-22" value="" style="endArrow=classic;html=1;rounded=0;entryX=0;entryY=0.75;entryDx=0;entryDy=0;exitX=1;exitY=0.5;exitDx=0;exitDy=0;" edge="1" parent="1" source="eSXZG_brT0zHeE_Tpon9-18" target="eSXZG_brT0zHeE_Tpon9-4">
          <mxGeometry width="50" height="50" relative="1" as="geometry">
            <mxPoint x="50" y="660" as="sourcePoint" />
            <mxPoint x="100" y="610" as="targetPoint" />
          </mxGeometry>
        </mxCell>
        <mxCell id="eSXZG_brT0zHeE_Tpon9-23" value="" style="endArrow=classic;html=1;rounded=0;entryX=0;entryY=0.75;entryDx=0;entryDy=0;exitX=1;exitY=0.5;exitDx=0;exitDy=0;" edge="1" parent="1" source="eSXZG_brT0zHeE_Tpon9-18" target="eSXZG_brT0zHeE_Tpon9-7">
          <mxGeometry width="50" height="50" relative="1" as="geometry">
            <mxPoint y="680" as="sourcePoint" />
            <mxPoint x="50" y="630" as="targetPoint" />
          </mxGeometry>
        </mxCell>
        <mxCell id="eSXZG_brT0zHeE_Tpon9-24" value="" style="endArrow=classic;html=1;rounded=0;entryX=0;entryY=0.75;entryDx=0;entryDy=0;exitX=1;exitY=0.5;exitDx=0;exitDy=0;" edge="1" parent="1" source="eSXZG_brT0zHeE_Tpon9-18" target="eSXZG_brT0zHeE_Tpon9-10">
          <mxGeometry width="50" height="50" relative="1" as="geometry">
            <mxPoint x="130" y="550" as="sourcePoint" />
            <mxPoint x="80" y="610" as="targetPoint" />
          </mxGeometry>
        </mxCell>
        <mxCell id="eSXZG_brT0zHeE_Tpon9-30" value="group1" style="swimlane;fillColor=#FFFFFF;" vertex="1" parent="1">
          <mxGeometry x="660" y="340" width="140" height="130" as="geometry" />
        </mxCell>
        <mxCell id="eSXZG_brT0zHeE_Tpon9-31" value="Consumer1" style="rounded=0;whiteSpace=wrap;html=1;fillColor=#60a917;fontColor=#ffffff;strokeColor=#2D7600;" vertex="1" parent="eSXZG_brT0zHeE_Tpon9-30">
          <mxGeometry x="20" y="40" width="100" height="20" as="geometry" />
        </mxCell>
        <mxCell id="eSXZG_brT0zHeE_Tpon9-32" value="Consumer2" style="rounded=0;whiteSpace=wrap;html=1;fillColor=#d80073;fontColor=#ffffff;strokeColor=#A50040;" vertex="1" parent="eSXZG_brT0zHeE_Tpon9-30">
          <mxGeometry x="20" y="70" width="100" height="20" as="geometry" />
        </mxCell>
        <mxCell id="eSXZG_brT0zHeE_Tpon9-33" value="Consumer3" style="rounded=0;whiteSpace=wrap;html=1;fillColor=#a20025;fontColor=#ffffff;strokeColor=#6F0000;" vertex="1" parent="eSXZG_brT0zHeE_Tpon9-30">
          <mxGeometry x="20" y="100" width="100" height="20" as="geometry" />
        </mxCell>
        <mxCell id="eSXZG_brT0zHeE_Tpon9-38" value="group2" style="swimlane;fillColor=#FFFFFF;" vertex="1" parent="1">
          <mxGeometry x="660" y="500" width="140" height="130" as="geometry" />
        </mxCell>
        <mxCell id="eSXZG_brT0zHeE_Tpon9-39" value="Consumer1" style="rounded=0;whiteSpace=wrap;html=1;fillColor=#60a917;fontColor=#ffffff;strokeColor=#2D7600;" vertex="1" parent="eSXZG_brT0zHeE_Tpon9-38">
          <mxGeometry x="20" y="40" width="100" height="20" as="geometry" />
        </mxCell>
        <mxCell id="eSXZG_brT0zHeE_Tpon9-40" value="Consumer2" style="rounded=0;whiteSpace=wrap;html=1;fillColor=#d80073;fontColor=#ffffff;strokeColor=#A50040;" vertex="1" parent="eSXZG_brT0zHeE_Tpon9-38">
          <mxGeometry x="20" y="70" width="100" height="20" as="geometry" />
        </mxCell>
        <mxCell id="eSXZG_brT0zHeE_Tpon9-41" value="Consumer3" style="rounded=0;whiteSpace=wrap;html=1;fillColor=#a20025;fontColor=#ffffff;strokeColor=#6F0000;" vertex="1" parent="eSXZG_brT0zHeE_Tpon9-38">
          <mxGeometry x="20" y="100" width="100" height="20" as="geometry" />
        </mxCell>
        <mxCell id="eSXZG_brT0zHeE_Tpon9-49" value="" style="endArrow=classic;html=1;rounded=0;exitX=1;exitY=0.5;exitDx=0;exitDy=0;fillColor=#a20025;strokeColor=#6F0000;" edge="1" parent="eSXZG_brT0zHeE_Tpon9-38" source="eSXZG_brT0zHeE_Tpon9-10">
          <mxGeometry width="50" height="50" relative="1" as="geometry">
            <mxPoint x="-30" y="160" as="sourcePoint" />
            <mxPoint x="20" y="110" as="targetPoint" />
          </mxGeometry>
        </mxCell>
        <mxCell id="eSXZG_brT0zHeE_Tpon9-42" value="" style="edgeStyle=none;rounded=0;orthogonalLoop=1;jettySize=auto;html=1;entryX=0;entryY=0.5;entryDx=0;entryDy=0;fillColor=#60a917;strokeColor=#2D7600;" edge="1" parent="1" source="eSXZG_brT0zHeE_Tpon9-4" target="eSXZG_brT0zHeE_Tpon9-31">
          <mxGeometry relative="1" as="geometry" />
        </mxCell>
        <mxCell id="eSXZG_brT0zHeE_Tpon9-43" value="" style="edgeStyle=none;rounded=0;orthogonalLoop=1;jettySize=auto;html=1;entryX=0;entryY=0.5;entryDx=0;entryDy=0;fillColor=#60a917;strokeColor=#2D7600;" edge="1" parent="1" target="eSXZG_brT0zHeE_Tpon9-39">
          <mxGeometry relative="1" as="geometry">
            <mxPoint x="330" y="430" as="sourcePoint" />
          </mxGeometry>
        </mxCell>
        <mxCell id="eSXZG_brT0zHeE_Tpon9-46" value="" style="edgeStyle=none;rounded=0;orthogonalLoop=1;jettySize=auto;html=1;entryX=0;entryY=0.5;entryDx=0;entryDy=0;fillColor=#d80073;strokeColor=#A50040;" edge="1" parent="1" target="eSXZG_brT0zHeE_Tpon9-32">
          <mxGeometry relative="1" as="geometry">
            <mxPoint x="330" y="505" as="sourcePoint" />
          </mxGeometry>
        </mxCell>
        <mxCell id="eSXZG_brT0zHeE_Tpon9-47" value="" style="edgeStyle=none;rounded=0;orthogonalLoop=1;jettySize=auto;html=1;entryX=0;entryY=0.5;entryDx=0;entryDy=0;fillColor=#d80073;strokeColor=#A50040;" edge="1" parent="1" source="eSXZG_brT0zHeE_Tpon9-7" target="eSXZG_brT0zHeE_Tpon9-40">
          <mxGeometry relative="1" as="geometry" />
        </mxCell>
        <mxCell id="eSXZG_brT0zHeE_Tpon9-48" value="" style="edgeStyle=none;rounded=0;orthogonalLoop=1;jettySize=auto;html=1;entryX=0;entryY=0.5;entryDx=0;entryDy=0;exitX=1;exitY=0.5;exitDx=0;exitDy=0;fillColor=#a20025;strokeColor=#6F0000;" edge="1" parent="1" source="eSXZG_brT0zHeE_Tpon9-10" target="eSXZG_brT0zHeE_Tpon9-33">
          <mxGeometry relative="1" as="geometry" />
        </mxCell>
        <mxCell id="eSXZG_brT0zHeE_Tpon9-53" value="zookeeper" style="swimlane;fillColor=#FFFFFF;" vertex="1" parent="1">
          <mxGeometry x="270" y="190" width="240" height="80" as="geometry" />
        </mxCell>
        <mxCell id="eSXZG_brT0zHeE_Tpon9-54" value="zk1" style="rounded=0;whiteSpace=wrap;html=1;fillColor=#1ba1e2;fontColor=#ffffff;strokeColor=#006EAF;" vertex="1" parent="eSXZG_brT0zHeE_Tpon9-53">
          <mxGeometry x="18" y="40" width="52" height="28" as="geometry" />
        </mxCell>
        <mxCell id="eSXZG_brT0zHeE_Tpon9-59" value="zk2" style="rounded=0;whiteSpace=wrap;html=1;fillColor=#1ba1e2;fontColor=#ffffff;strokeColor=#006EAF;" vertex="1" parent="eSXZG_brT0zHeE_Tpon9-53">
          <mxGeometry x="98" y="38" width="50" height="30" as="geometry" />
        </mxCell>
        <mxCell id="eSXZG_brT0zHeE_Tpon9-60" value="zk3" style="rounded=0;whiteSpace=wrap;html=1;fillColor=#1ba1e2;fontColor=#ffffff;strokeColor=#006EAF;" vertex="1" parent="eSXZG_brT0zHeE_Tpon9-53">
          <mxGeometry x="178" y="38" width="50" height="30" as="geometry" />
        </mxCell>
        <mxCell id="eSXZG_brT0zHeE_Tpon9-63" value="/brokers/ids/[0,1,2]&lt;br&gt;/brokers/topics/first/partitions/0/state&lt;br&gt;&quot;leader&quot;:0,&quot;isr&quot;:[0,2]&amp;nbsp;" style="text;html=1;strokeColor=none;fillColor=none;align=left;verticalAlign=middle;whiteSpace=wrap;rounded=0;shadow=1;" vertex="1" parent="1">
          <mxGeometry x="400" y="290" width="60" height="30" as="geometry" />
        </mxCell>
        <mxCell id="eSXZG_brT0zHeE_Tpon9-64" value="&lt;h1&gt;Kafka 基础架构&lt;/h1&gt;&lt;p&gt;1.为方便扩展，并提高吞吐量，一个topic分为多个partition&lt;/p&gt;&lt;p&gt;2.配合分区的设计，提出消费者组的概念，组内每个消费者并行消费&lt;/p&gt;&lt;p&gt;3.为提高可用性，为每个partition增加若干副本，类似NameNode HA&lt;/p&gt;&lt;p&gt;4. ZK中记录谁是leader，Kafka2.8.0以后也可以配置不采用ZK&lt;/p&gt;" style="text;html=1;strokeColor=none;fillColor=none;spacing=5;spacingTop=-20;whiteSpace=wrap;overflow=hidden;rounded=0;shadow=1;" vertex="1" parent="1">
          <mxGeometry x="20" y="10" width="490" height="150" as="geometry" />
        </mxCell>
        <mxCell id="eSXZG_brT0zHeE_Tpon9-65" value="&lt;h1&gt;成员介绍&lt;/h1&gt;&lt;p&gt;（1）Producer：消息生产者，就是向 Kafka broker 发消息的客户端。&lt;/p&gt;&lt;p&gt;（2）Consumer：消息消费者，向 Kafka broker 取消息的客户端。&lt;/p&gt;&lt;p&gt;（3）Consumer Group（CG）：消费者组，由多个 consumer 组成。消费者组内每个消费者负责消费不同分区的数据，一个分区只能由一个组内消费者消费；消费者组之间互不影响。所有的消费者都属于某个消费者组，即消费者组是逻辑上的一个订阅者。&lt;/p&gt;&lt;p&gt;（4）Broker：一台 Kafka 服务器就是一个 broker。一个集群由多个 broker 组成。一个broker 可以容纳多个 topic。&lt;/p&gt;&lt;p&gt;（5）Topic：可以理解为一个队列，生产者和消费者面向的都是一个 topic。&lt;/p&gt;&lt;p&gt;（6）Partition：为了实现扩展性，一个非常大的 topic 可以分布到多个 broker（即服务器）上，一个 topic 可以分为多个 partition，每个 partition 是一个有序的队列。&lt;/p&gt;&lt;p&gt;（7）Replica：副本。一个 topic 的每个分区都有若干个副本，一个 Leader 和若干个 Follower。&lt;/p&gt;&lt;p&gt;（8）Leader：每个分区多个副本的“主”，生产者发送数据的对象，以及消费者消费数据的对象都是 Leader。&lt;/p&gt;&lt;p&gt;（9）Follower：每个分区多个副本中的“从”，实时从 Leader 中同步数据，保持和 Leader 数据的同步。Leader 发生故障时，某个 Follower 会成为新的 Leader。&lt;/p&gt;" style="text;html=1;strokeColor=none;fillColor=none;spacing=5;spacingTop=-20;whiteSpace=wrap;overflow=hidden;rounded=0;shadow=1;" vertex="1" parent="1">
          <mxGeometry x="23" y="650" width="788" height="320" as="geometry" />
        </mxCell>
        <mxCell id="eSXZG_brT0zHeE_Tpon9-68" value="&lt;font color=&quot;#00ff00&quot;&gt;kafka-console-producer.sh&lt;/font&gt;" style="text;html=1;strokeColor=none;fillColor=none;align=center;verticalAlign=middle;whiteSpace=wrap;rounded=0;shadow=1;" vertex="1" parent="1">
          <mxGeometry y="450" width="160" height="10" as="geometry" />
        </mxCell>
        <mxCell id="eSXZG_brT0zHeE_Tpon9-69" value="kafka-topics.sh" style="text;html=1;strokeColor=none;fillColor=none;align=center;verticalAlign=middle;whiteSpace=wrap;rounded=0;shadow=1;fontColor=#00FF00;" vertex="1" parent="1">
          <mxGeometry x="170" y="310" width="110" height="20" as="geometry" />
        </mxCell>
        <mxCell id="eSXZG_brT0zHeE_Tpon9-70" value="kafka-console-consumer.sh" style="text;html=1;align=center;verticalAlign=middle;resizable=0;points=[];autosize=1;strokeColor=none;fillColor=none;fontColor=#00FF00;" vertex="1" parent="1">
          <mxGeometry x="640" y="310" width="160" height="20" as="geometry" />
        </mxCell>
      </root>
    </mxGraphModel>
  </diagram>
  <diagram id="df3xZz75t7QaS7L6ZFp4" name="kafka生产者发送消息流程">
    <mxGraphModel dx="1022" dy="402" grid="1" gridSize="10" guides="1" tooltips="1" connect="1" arrows="1" fold="1" page="1" pageScale="1" pageWidth="827" pageHeight="1169" math="0" shadow="0">
      <root>
        <mxCell id="0" />
        <mxCell id="1" parent="0" />
      </root>
    </mxGraphModel>
  </diagram>
</mxfile>
